# Blender v2.93.5 OBJ File: ''
# www.blender.org
mtllib rock.mtl
o Icosphere
v -0.190510 -0.250550 -0.361664
v 0.421383 -0.347405 0.128088
v -0.246288 -0.231973 0.959019
v 1.195518 -0.029880 0.726561
v 1.336159 -0.198917 -0.094265
v -0.908581 -0.213046 -0.122839
v -0.528637 -0.364453 -0.630810
v 0.156471 -0.319903 -0.334471
v 1.443398 0.296984 0.335211
v -0.480217 -0.191455 1.878588
v 0.839134 -0.165844 0.922680
v 1.559456 -0.031192 0.990543
v -1.176758 -0.013995 0.079739
v -1.070995 0.171069 0.815977
v -1.082645 0.861966 0.476372
v -0.645325 0.376367 -0.965099
v -1.148399 0.210534 -0.765408
v -0.883842 0.851682 -0.935011
v 1.149208 -0.100088 -0.889397
v -0.043957 -0.263422 -0.868835
v 0.645855 0.571010 -1.392712
v 1.172089 0.814122 0.715158
v -1.041462 0.140798 1.980255
v -1.006714 0.944258 -0.452415
v -0.250195 0.589242 -1.200878
v 1.194862 0.594773 -0.696663
v 0.220730 1.391478 0.707245
v 0.653370 1.192602 0.463142
v 0.046024 1.362986 0.447372
v -0.919273 1.023024 1.311527
v 0.268169 0.704848 1.733635
v -0.452736 1.329713 0.240984
v -0.798073 1.213267 -0.623873
v -0.898521 1.017676 0.146713
v -0.512264 1.299625 -0.394093
v 0.229469 0.843518 -1.100317
v -0.316216 1.136726 -0.904821
v 0.056217 1.453236 -0.584982
v 0.919029 1.109244 -0.335938
v 0.830135 1.093045 -1.030396
v 0.467289 1.437372 -0.201096
v -0.202190 1.590250 -0.172779
vt 0.188688 0.083532
vt 0.275939 0.171063
vt 0.160125 0.303509
vt 0.345974 0.271319
vt 0.393062 0.137811
vt 0.081589 0.117940
vt 0.155920 0.038056
vt 0.243114 0.091539
vt 0.818731 0.827130
vt 0.735596 0.742465
vt 0.843991 0.767456
vt 0.110469 0.454909
vt 0.305981 0.303801
vt 0.393062 0.317929
vt 0.435015 0.258011
vt 0.528201 0.169214
vt 0.582667 0.264000
vt 0.495719 0.800980
vt 0.516160 0.893674
vt 0.416340 0.831175
vt 0.633143 0.522646
vt 0.619840 0.720208
vt 0.483769 0.571064
vt 0.231084 0.871677
vt 0.231398 0.951869
vt 0.117098 0.951869
vt 0.829668 0.089063
vt 0.829668 0.463672
vt 0.771701 0.000000
vt 0.520068 0.408081
vt 0.462345 0.723429
vt 0.685846 0.617358
vt 0.734833 0.463672
vt 0.804393 0.591411
vt 0.089500 0.755539
vt 0.088957 0.665721
vt 0.134359 0.756352
vt 0.984502 0.610708
vt 0.843991 0.759950
vt 0.853978 0.463672
vt 0.554768 0.461829
vt 0.588248 0.331820
vt 0.607272 0.449256
vt 0.671191 0.647549
vt 0.633143 0.605429
vt 0.671191 0.522646
vt 0.185281 0.562105
vt 0.289453 0.518190
vt 0.211316 0.654495
vt 0.289453 0.679843
vt 0.252401 0.755658
vt 0.911887 0.324250
vt 0.911887 0.416140
vt 0.829668 0.339035
vt 0.654656 0.516938
vt 0.685846 0.452833
vt 0.559674 0.522646
vt 0.659113 0.647549
vt 0.677825 0.737280
vt 0.633143 0.737280
vt 0.669380 0.362342
vt 0.685846 0.162278
vt 0.188061 0.803997
vt 0.367154 0.462815
vt 0.367154 0.707828
vt 0.313113 0.490844
vt 0.289453 0.531936
vt 0.188662 0.462815
vt 0.843991 0.483174
vt 0.444978 0.644412
vt 0.430581 0.544682
vt 0.393062 0.734535
vt 0.477642 0.478265
vt 0.999355 0.759950
vt 0.685846 0.224534
vt 1.000000 0.000000
vt 1.000000 0.324250
vt 0.829668 0.220822
vt 0.000000 0.591514
vt 0.843991 0.839893
vt 0.902017 0.759950
vt 0.902017 0.923495
vt 0.006223 0.491134
vt 0.393062 0.396987
vt 0.625383 0.000000
vt 0.009890 0.267615
vt 0.000000 0.462815
vt 0.343450 0.991192
vt 0.289453 0.867269
vt 0.343450 0.707828
vt 0.117098 0.960652
vt 0.000000 0.960652
vt 0.072506 0.803997
vt 0.208218 0.803997
vt 0.217646 0.000000
vt 0.369326 0.002128
vt 0.633143 0.810095
vt 0.018272 0.002255
vt 0.022858 0.146810
vn -0.1279 -0.9439 0.3043
vn 0.0535 -0.9979 0.0363
vn -0.1659 -0.9836 0.0704
vn 0.6631 -0.4892 0.5665
vn 0.7299 -0.6804 -0.0661
vn -0.4345 -0.9007 -0.0001
vn -0.2479 -0.9138 -0.3217
vn -0.0039 -0.9995 -0.0315
vn 0.9827 0.1052 0.1522
vn 0.0110 -0.6329 0.7742
vn 0.2748 -0.9583 0.0784
vn 0.9404 -0.3339 -0.0642
vn -0.8761 -0.4748 0.0838
vn -0.8712 -0.4774 0.1142
vn -0.9049 0.4252 0.0199
vn -0.3297 -0.2912 -0.8981
vn -0.8019 -0.2501 -0.5425
vn -0.6033 0.3278 -0.7270
vn 0.6230 -0.5610 -0.5451
vn -0.0559 -0.7834 -0.6189
vn 0.2215 0.0611 -0.9732
vn 0.7239 0.5902 0.3571
vn -0.6158 -0.2179 0.7572
vn -0.8987 0.4277 -0.0969
vn -0.2411 0.0336 -0.9699
vn 0.9073 0.2655 -0.3260
vn -0.0620 0.9498 0.3066
vn 0.5310 0.8383 0.1240
vn -0.0743 0.9478 0.3100
vn -0.5215 0.7514 0.4043
vn 0.3317 0.4061 0.8515
vn -0.4056 0.8895 0.2103
vn -0.5042 0.8174 -0.2787
vn -0.6071 0.7943 0.0225
vn -0.4168 0.8957 -0.1547
vn -0.1124 0.5909 -0.7988
vn -0.1416 0.6887 -0.7111
vn -0.0125 0.8843 -0.4667
vn 0.7286 0.6849 -0.0014
vn 0.4756 0.6525 -0.5900
vn 0.3848 0.9228 0.0169
vn -0.2380 0.9708 -0.0307
usemtl None
s 1
f 1/1/1 2/2/2 3/3/3
f 4/4/4 2/2/2 5/5/5
f 1/1/1 3/3/3 6/6/6
f 1/1/1 6/6/6 7/7/7
f 1/1/1 7/7/7 8/8/8
f 4/9/4 5/10/5 9/11/9
f 10/12/10 11/13/11 12/14/12
f 13/15/13 14/16/14 15/17/15
f 16/18/16 17/19/17 18/20/18
f 19/21/19 20/22/20 21/23/21
f 4/24/4 9/25/9 22/26/22
f 10/27/10 12/28/12 23/29/23
f 13/15/13 15/17/15 24/30/24
f 16/18/16 18/20/18 25/31/25
f 19/32/19 21/33/21 26/34/26
f 27/35/27 28/36/28 29/37/29
f 30/38/30 31/39/31 32/40/32
f 33/41/33 34/42/34 35/43/35
f 36/44/36 37/45/37 38/46/38
f 39/47/39 40/48/40 41/49/41
f 41/49/41 38/50/38 42/51/42
f 41/49/41 40/48/40 38/50/38
f 40/52/40 36/53/36 38/54/38
f 38/55/38 35/43/35 42/56/42
f 38/55/38 37/57/37 35/43/35
f 37/58/37 33/59/33 35/60/35
f 35/43/35 32/61/32 42/56/42
f 35/43/35 34/42/34 32/61/32
f 34/42/34 30/62/30 32/61/32
f 32/63/32 29/37/29 42/51/42
f 32/64/32 31/65/31 29/66/29
f 31/65/31 27/67/27 29/66/29
f 29/37/29 41/49/41 42/51/42
f 29/37/29 28/36/28 41/49/41
f 28/36/28 39/47/39 41/49/41
f 26/68/26 40/48/40 39/47/39
f 26/34/26 21/33/21 40/69/40
f 21/23/21 36/70/36 40/71/40
f 25/31/25 37/72/37 36/70/36
f 25/31/25 18/20/18 37/72/37
f 18/73/18 33/41/33 37/57/37
f 24/30/24 34/42/34 33/41/33
f 24/30/24 15/17/15 34/42/34
f 15/17/15 30/62/30 34/42/34
f 23/74/23 31/39/31 30/38/30
f 23/29/23 12/28/12 31/75/31
f 12/76/12 27/77/27 31/78/31
f 22/79/22 28/36/28 27/35/27
f 22/80/22 9/81/9 28/82/28
f 9/83/9 39/47/39 28/36/28
f 21/23/21 25/31/25 36/70/36
f 21/23/21 20/22/20 25/31/25
f 20/22/20 16/18/16 25/31/25
f 18/73/18 24/30/24 33/41/33
f 18/73/18 17/84/17 24/30/24
f 17/84/17 13/15/13 24/30/24
f 15/17/15 23/85/23 30/62/30
f 15/17/15 14/16/14 23/85/23
f 14/86/14 10/12/10 23/87/23
f 12/88/12 22/89/22 27/90/27
f 12/91/12 11/92/11 22/93/22
f 11/94/11 4/24/4 22/26/22
f 9/83/9 26/68/26 39/47/39
f 9/11/9 5/10/5 26/34/26
f 5/10/5 19/32/19 26/34/26
f 8/8/8 20/95/20 19/96/19
f 8/8/8 7/7/7 20/95/20
f 7/97/7 16/18/16 20/22/20
f 7/97/7 17/19/17 16/18/16
f 7/7/7 6/6/6 17/98/17
f 6/6/6 13/99/13 17/98/17
f 6/6/6 14/86/14 13/99/13
f 6/6/6 3/3/3 14/86/14
f 3/3/3 10/12/10 14/86/14
f 5/5/5 8/8/8 19/96/19
f 5/5/5 2/2/2 8/8/8
f 2/2/2 1/1/1 8/8/8
f 3/3/3 11/13/11 10/12/10
f 3/3/3 2/2/2 11/13/11
f 2/2/2 4/4/4 11/13/11
