# Blender v2.93.5 OBJ File: ''
# www.blender.org
mtllib shack.mtl
o Cube
v 13.819811 7.471604 -10.324294
v 17.271494 3.387810 -12.920674
v 17.207607 3.347553 -7.425204
v 9.902521 3.357819 -12.717902
v 10.002042 3.513289 -7.181285
vt 0.375000 0.750000
vt 0.625000 1.000000
vt 0.375000 1.000000
vt 0.375000 0.000000
vt 0.625000 0.250000
vt 0.375000 0.250000
vt 0.125000 0.500000
vt 0.375000 0.500000
vt 0.125000 0.750000
vt 0.625000 0.750000
vt 0.625000 0.500000
vn 0.0409 0.5969 0.8013
vn -0.7223 0.6915 -0.0064
vn -0.0090 -0.9999 0.0105
vn 0.7679 0.6404 0.0136
vn -0.0256 0.5208 -0.8533
usemtl Material
s off
f 3/1/1 1/2/1 5/3/1
f 5/4/2 1/5/2 4/6/2
f 4/7/3 2/8/3 3/1/3 5/9/3
f 2/8/4 1/10/4 3/1/4
f 4/6/5 1/11/5 2/8/5
o Cube.001
v 10.735468 -0.540990 -8.093354
v 10.735468 3.459010 -8.093354
v 10.735468 -0.540990 -12.093354
v 10.735468 3.459010 -12.093354
v 16.735468 -0.540990 -8.093354
v 16.735468 3.459010 -8.093354
v 16.735468 -0.540990 -12.093354
v 16.735468 3.459010 -12.093354
v 15.663404 -0.540990 -12.093354
v 13.830920 -0.540990 -12.093354
v 15.655500 2.420234 -12.093354
v 13.814867 2.422010 -12.093354
v 12.134716 2.348471 -8.093354
v 13.446819 2.352555 -8.093354
v 13.465459 1.453348 -8.093354
v 12.084747 1.454048 -8.093354
v 12.048916 2.348205 -8.093354
v 13.642676 2.355172 -8.093354
v 14.965931 2.360275 -8.093354
v 14.962337 1.460849 -8.093354
v 13.643938 1.468929 -8.093354
v 13.460310 1.280908 -8.093354
v 12.088374 1.294053 -8.093354
v 12.065722 0.489489 -8.093354
v 13.431990 0.472889 -8.093354
v 13.827601 1.232482 -8.093354
v 14.986894 0.525444 -8.093354
v 14.974665 1.257775 -8.093354
v 13.677933 0.512245 -8.093354
v 13.661819 1.228674 -8.093354
v 10.908672 -0.425521 -8.208824
v 10.908672 3.343540 -8.208824
v 10.908672 -0.425521 -11.977884
v 10.908672 3.343540 -11.977884
v 16.562263 -0.425521 -8.208824
v 16.562263 3.343540 -8.208824
v 16.562263 -0.425521 -11.977884
v 16.562263 3.343540 -11.977884
v 15.663404 -0.362146 -12.003831
v 13.830920 -0.362024 -12.004082
v 15.655500 2.420234 -11.893354
v 13.814867 2.422010 -11.893360
v 12.134716 2.348471 -8.293354
v 13.446819 2.352555 -8.293354
v 13.465459 1.453348 -8.293354
v 12.084747 1.454048 -8.293348
v 12.048916 2.348205 -8.293348
v 13.642676 2.355172 -8.293354
v 14.965931 2.360275 -8.293348
v 14.962337 1.460849 -8.293348
v 13.643938 1.468929 -8.293354
v 13.460310 1.280908 -8.293354
v 12.088374 1.294053 -8.293354
v 12.065722 0.489489 -8.293354
v 13.431990 0.472889 -8.293354
v 13.827601 1.232482 -8.293354
v 14.986894 0.525444 -8.293354
v 14.974665 1.257775 -8.293354
v 13.677933 0.512245 -8.293348
v 13.661819 1.228674 -8.293354
vt 0.375000 0.000000
vt 0.625000 0.000000
vt 0.625000 0.250000
vt 0.375000 0.250000
vt 0.625000 0.500000
vt 0.375000 0.500000
vt 0.375000 0.455331
vt 0.560077 0.455001
vt 0.560188 0.378308
vt 0.375000 0.378977
vt 0.625000 0.750000
vt 0.375000 0.750000
vt 0.441652 0.822857
vt 0.440827 0.877397
vt 0.485604 0.878069
vt 0.485842 0.871161
vt 0.499646 0.886250
vt 0.488869 0.886465
vt 0.438367 0.887645
vt 0.439405 0.944573
vt 0.375000 1.000000
vt 0.125000 0.500000
vt 0.253977 0.500000
vt 0.330331 0.500000
vt 0.125000 0.750000
vt 0.875000 0.500000
vt 0.875000 0.750000
vt 0.556329 0.823731
vt 0.500115 0.823880
vt 0.500620 0.878814
vt 0.556010 0.878866
vt 0.555575 0.945273
vt 0.555591 0.941698
vt 0.555847 0.887027
vt 0.487423 0.823367
vt 0.625000 1.000000
vt 0.489690 0.943629
vt 0.499690 0.943780
vt 0.375000 0.000000
vt 0.375000 0.250000
vt 0.625000 0.250000
vt 0.625000 0.000000
vt 0.375000 0.378977
vt 0.560188 0.378308
vt 0.560077 0.455001
vt 0.375000 0.455331
vt 0.375000 0.500000
vt 0.625000 0.500000
vt 0.375000 0.750000
vt 0.625000 0.750000
vt 0.375000 1.000000
vt 0.439405 0.944573
vt 0.438367 0.887645
vt 0.488869 0.886465
vt 0.499646 0.886250
vt 0.485842 0.871161
vt 0.485604 0.878069
vt 0.440827 0.877397
vt 0.441652 0.822857
vt 0.125000 0.500000
vt 0.125000 0.750000
vt 0.330331 0.500000
vt 0.253977 0.500000
vt 0.875000 0.750000
vt 0.875000 0.500000
vt 0.487423 0.823367
vt 0.555847 0.887027
vt 0.555591 0.941698
vt 0.555575 0.945273
vt 0.556010 0.878866
vt 0.500620 0.878814
vt 0.500115 0.823880
vt 0.556329 0.823731
vt 0.625000 1.000000
vt 0.499690 0.943780
vt 0.489690 0.943629
vn -1.0000 0.0000 0.0000
vn 0.0000 0.0000 -1.0000
vn 1.0000 0.0000 0.0000
vn -0.0000 0.0000 1.0000
vn 0.0000 -1.0000 0.0000
vn 0.0000 1.0000 0.0000
vn 0.0000 0.0066 1.0000
vn 0.0004 -0.0862 -0.9963
vn -0.0000 0.9999 0.0111
vn 0.0481 0.0002 -0.9988
vn -0.0001 0.0852 -0.9964
vn -0.0680 -0.0002 -0.9977
vn 0.0001 0.4470 -0.8945
vn -1.0000 -0.0028 0.0017
vn 1.0000 0.0057 -0.0035
vn -0.0010 -1.0000 0.0000
vn 0.0031 -1.0000 0.0000
vn -0.9998 -0.0207 0.0000
vn 0.0005 1.0000 0.0000
vn 0.9992 0.0400 0.0000
vn 0.0039 -1.0000 0.0000
vn -1.0000 0.0040 0.0000
vn 0.0061 1.0000 0.0000
vn 1.0000 0.0014 0.0000
vn -0.0096 -1.0000 0.0000
vn 0.9996 -0.0281 0.0000
vn 0.0121 0.9999 0.0000
vn -0.9994 0.0350 0.0000
vn -0.9999 -0.0167 0.0000
vn 0.0220 -0.9998 0.0000
vn -0.0101 0.9999 0.0000
vn 0.0230 -0.9997 0.0000
vn 0.9997 0.0225 0.0000
usemtl None
s off
f 6/12/6 7/13/6 9/14/6 8/15/6
f 8/15/7 9/14/7 13/16/7 12/17/7 14/18/7 16/19/7 17/20/7 15/21/7
f 12/17/8 13/16/8 11/22/8 10/23/8
f 10/23/9 32/24/9 34/25/9 35/26/9 31/27/9 20/28/9 27/29/9 30/30/9 29/31/9 6/32/9
f 8/33/10 15/34/10 14/35/10 12/17/10 10/23/10 6/36/10
f 13/16/11 9/37/11 7/38/11 11/22/11
f 11/22/9 24/39/9 25/40/9 26/41/9 23/42/9 22/43/9 18/44/9 19/45/9 20/28/9 31/27/9 33/46/9 32/24/9 10/23/9
f 7/47/9 22/43/9 23/42/9 24/39/9 11/22/9
f 6/32/9 29/31/9 28/48/9 27/29/9 20/28/9 21/49/9 22/43/9 7/47/9
f 36/50/8 38/51/8 39/52/8 37/53/8
f 38/51/12 45/54/12 47/55/12 46/56/12 44/57/12 42/58/12 43/59/12 39/52/12
f 42/58/6 40/60/6 41/61/6 43/59/6
f 40/60/13 36/62/13 59/63/13 60/64/13 57/65/13 50/66/13 61/67/13 65/68/13 64/69/13 62/70/13
f 38/71/14 36/72/14 40/60/14 42/58/14 44/73/14 45/74/14
f 43/59/10 41/61/10 37/75/10 39/76/10
f 41/61/15 40/60/15 62/70/15 63/77/15 61/67/15 50/66/15 49/78/15 48/79/15 52/80/15 53/81/15 56/82/15 55/83/15 54/84/15
f 37/85/16 41/61/16 54/84/16 53/81/16 52/80/16
f 36/62/17 37/85/17 52/80/17 51/86/17 50/66/17 57/65/17 58/87/17 59/63/17
f 14/35/18 15/34/18 45/74/18 44/73/18
f 16/19/19 14/18/19 44/57/19 46/56/19
f 15/21/20 17/20/20 47/55/20 45/54/20
f 17/20/21 16/19/21 46/56/21 47/55/21
f 19/45/22 18/44/22 48/79/22 49/78/22
f 20/28/23 19/45/23 49/78/23 50/66/23
f 21/49/24 20/28/24 50/66/24 51/86/24
f 22/43/25 21/49/25 51/86/25 52/80/25
f 18/44/22 22/43/22 52/80/22 48/79/22
f 24/39/26 23/42/26 53/81/26 54/84/26
f 25/40/27 24/39/27 54/84/27 55/83/27
f 26/41/28 25/40/28 55/83/28 56/82/28
f 23/42/29 26/41/29 56/82/29 53/81/29
f 27/29/30 28/48/30 58/87/30 57/65/30
f 28/48/31 29/31/31 59/63/31 58/87/31
f 29/31/32 30/30/32 60/64/32 59/63/32
f 30/30/33 27/29/33 57/65/33 60/64/33
f 32/24/34 33/46/34 63/77/34 62/70/34
f 33/46/35 31/27/35 61/67/35 63/77/35
f 34/25/36 32/24/36 62/70/36 64/69/36
f 31/27/37 35/26/37 65/68/37 61/67/37
f 35/26/38 34/25/38 64/69/38 65/68/38
