# Blender v2.90.0 OBJ File: ''
# www.blender.org
mtllib tracer.mtl
o Plane
v -0.023988 -0.001232 0.000000
v 0.023987 -0.001232 0.000000
v -0.023990 77.480354 0.000000
v 0.023985 77.480354 0.000000
v -0.000001 -0.001228 0.023988
v -0.000001 -0.001228 -0.023988
v -0.000002 77.480354 0.023988
v -0.000002 77.480354 -0.023988
vt 0.000000 0.000000
vt 1.000000 0.000000
vt 1.000000 1.000000
vt 0.000000 1.000000
vt 0.000000 0.000000
vt 1.000000 0.000000
vt 1.000000 1.000000
vt 0.000000 1.000000
vn 0.0000 0.0000 1.0000
vn 1.0000 0.0000 -0.0000
usemtl None
s off
f 1/1/1 2/2/1 4/3/1 3/4/1
f 5/5/2 6/6/2 8/7/2 7/8/2
