# Blender v2.93.4 OBJ File: ''
# www.blender.org
mtllib flower.mtl
o NaturePlants0033_1_S.002_Plane.053
v -0.255189 0.000000 0.000000
v 0.251707 0.000000 0.000000
v -0.297122 0.902078 -0.006469
v 0.209774 0.902078 -0.006469
v -0.001741 -0.000000 0.253448
v -0.001741 0.000000 -0.253448
v -0.001741 0.899587 0.288808
v -0.001741 0.899587 -0.218088
vt 0.000000 0.000000
vt 1.000000 0.000000
vt 1.000000 1.000000
vt 0.000000 1.000000
vt 0.000000 0.000000
vt 1.000000 0.000000
vt 1.000000 1.000000
vt 0.000000 1.000000
vn 0.0000 0.0072 1.0000
vn 1.0000 0.0000 0.0000
usemtl Plants.013
s off
f 1/1/1 2/2/1 4/3/1 3/4/1
f 5/5/2 6/6/2 8/7/2 7/8/2
