# Blender v2.92.0 OBJ File: ''
# www.blender.org
mtllib room.mtl
o Plane
v -3.397836 0.000000 4.197115
v 4.197115 0.000000 4.197115
v -3.397836 0.000000 -3.397836
v 4.197115 0.000000 -3.397836
v -3.397836 6.930571 4.197115
v -3.397836 6.930571 -3.397836
v 4.197115 6.930571 -3.397836
v -3.583397 -0.185561 4.011555
v 4.011555 -0.185561 4.011555
v -3.583397 -0.185561 -3.583397
v 4.011555 -0.185561 -3.583397
v -3.583397 6.745010 4.011555
v -3.583397 6.745010 -3.583397
v 4.011555 6.745010 -3.583397
vt 0.000000 0.370902
vt 0.000000 0.732958
vt 0.362056 0.732958
vt 0.895437 1.000000
vt 0.895437 0.669615
vt 0.639424 0.669615
vt 0.895437 0.669615
vt 0.895437 0.339231
vt 0.639424 0.339231
vt 0.362056 0.362056
vt 0.362056 0.000000
vt 0.000000 0.000000
vt 0.626915 0.512025
vt 0.370902 0.512025
vt 0.370902 0.842409
vt 0.639424 0.339231
vt 0.895436 0.339231
vt 0.895436 0.008846
vt 0.383412 0.256012
vt 0.639424 0.000000
vt 0.626915 0.000000
vt 0.370902 0.008846
vt 0.907947 0.330385
vt 0.907947 0.000000
vt 0.639424 0.520871
vt 0.626914 0.842409
vt 0.370902 0.256012
vt 0.626915 0.512025
vt 0.008846 0.370902
vt 0.370902 0.370902
vt 0.362056 0.370902
vt 0.639424 1.000000
vt 0.639424 0.669615
vt 0.000000 0.362056
vt 0.639424 0.008846
vt 0.639424 0.851255
vt 0.639424 0.512025
vn 0.0000 1.0000 0.0000
vn 0.0000 0.0000 1.0000
vn 1.0000 0.0000 0.0000
vn 0.0000 -1.0000 0.0000
vn 0.0000 0.0000 -1.0000
vn -1.0000 0.0000 0.0000
vn 0.0000 0.7071 -0.7071
vn 0.0000 -0.7071 0.7071
vn -0.7071 0.0000 0.7071
vn 0.7071 0.0000 -0.7071
vn -0.7071 0.7071 0.0000
vn 0.7071 -0.7071 0.0000
usemtl None
s off
f 3/1/1 1/2/1 2/3/1
f 6/4/2 3/5/2 4/6/2
f 5/7/3 1/8/3 3/9/3
f 9/10/4 8/11/4 10/12/4
f 11/13/5 10/14/5 13/15/5
f 10/16/6 8/17/6 12/18/6
f 6/19/7 7/20/7 14/21/7
f 1/22/8 8/11/8 9/10/8
f 1/23/9 5/24/9 12/18/9
f 4/25/10 11/13/10 14/26/10
f 6/19/11 13/27/11 12/28/11
f 4/29/12 2/30/12 9/10/12
f 3/1/1 2/3/1 4/31/1
f 6/4/2 4/6/2 7/32/2
f 5/7/3 3/9/3 6/33/3
f 9/10/4 10/12/4 11/34/4
f 11/13/5 13/15/5 14/26/5
f 10/16/6 12/18/6 13/35/6
f 6/19/7 14/21/7 13/27/7
f 1/22/8 9/10/8 2/30/8
f 1/23/9 12/18/9 8/17/9
f 4/25/10 14/26/10 7/36/10
f 6/19/11 12/28/11 5/37/11
f 4/29/12 9/10/12 11/34/12
